<?xml version="1.0" encoding="UTF-8"?>
<svg xmlns="http://www.w3.org/2000/svg" xmlns:xlink="http://www.w3.org/1999/xlink" width="370px" height="114px" viewBox="0 0 370 114" version="1.1">
<g id="surface1">
<path style=" stroke:none;fill-rule:nonzero;fill:rgb(100%,14.117647%,28.627451%);fill-opacity:1;" d="M 358.199219 0 L 11.800781 0 C 5.5 0 0.390625 5.117188 0.390625 11.429688 L 0.390625 102.414062 C 0.390625 108.726562 5.5 113.84375 11.800781 113.84375 L 358.199219 113.84375 C 364.5 113.84375 369.609375 108.726562 369.609375 102.414062 L 369.609375 11.429688 C 369.609375 5.117188 364.5 0 358.199219 0 Z M 358.199219 0 "/>
<path style=" stroke:none;fill-rule:nonzero;fill:rgb(100%,100%,100%);fill-opacity:1;" d="M 34.351562 16.71875 C 30.414062 19.0625 22.648438 27.996094 22.578125 30.339844 L 22.578125 34.21875 C 22.578125 39.128906 27.164062 43.453125 31.328125 43.453125 C 36.332031 43.453125 40.496094 39.304688 40.496094 34.375 C 40.496094 39.304688 44.515625 43.453125 49.523438 43.453125 C 54.519531 43.453125 58.410156 39.304688 58.410156 34.375 C 58.410156 39.304688 62.6875 43.453125 67.691406 43.453125 L 67.777344 43.453125 C 72.78125 43.453125 77.058594 39.304688 77.058594 34.375 C 77.058594 39.304688 80.957031 43.453125 85.953125 43.453125 C 90.957031 43.453125 94.980469 39.304688 94.980469 34.375 C 94.980469 39.304688 99.144531 43.453125 104.140625 43.453125 C 108.304688 43.453125 112.898438 39.128906 112.898438 34.21875 L 112.898438 30.339844 C 112.816406 27.996094 105.058594 19.0625 101.113281 16.71875 C 88.878906 16.289062 80.386719 16.210938 67.734375 16.210938 C 55.089844 16.210938 37.835938 16.417969 34.351562 16.71875 Z M 58.347656 41.140625 C 57.871094 41.976562 57.277344 42.742188 56.59375 43.414062 C 54.636719 45.335938 52 46.40625 49.265625 46.40625 C 46.519531 46.40625 43.886719 45.335938 41.921875 43.40625 C 41.261719 42.75 40.691406 42 40.246094 41.179688 L 40.238281 41.1875 C 39.761719 42.023438 39.097656 42.742188 38.410156 43.414062 C 36.457031 45.335938 33.824219 46.40625 31.070312 46.40625 C 30.738281 46.398438 30.402344 46.328125 30.085938 46.210938 C 29.738281 49.917969 29.523438 53.625 29.449219 57.335938 L 29.449219 57.359375 L 29.433594 61.757812 C 29.503906 70.554688 28.558594 90.28125 33.300781 95.125 C 40.648438 96.84375 54.171875 97.625 67.734375 97.632812 L 67.742188 97.632812 C 81.300781 97.625 94.824219 96.84375 102.167969 95.125 C 106.914062 90.28125 105.964844 70.554688 106.042969 61.757812 L 106.019531 57.359375 L 106.019531 57.335938 C 105.949219 53.625 105.738281 49.917969 105.386719 46.210938 C 105.074219 46.328125 104.742188 46.398438 104.398438 46.40625 C 101.65625 46.40625 99.015625 45.335938 97.054688 43.414062 C 96.375 42.742188 95.707031 42.023438 95.234375 41.1875 L 95.230469 41.1875 C 94.777344 42 94.214844 42.75 93.554688 43.40625 C 91.589844 45.328125 88.957031 46.40625 86.210938 46.40625 C 83.476562 46.40625 80.839844 45.328125 78.878906 43.40625 C 78.199219 42.734375 77.605469 41.976562 77.117188 41.140625 C 76.65625 41.96875 76.066406 42.734375 75.378906 43.40625 C 73.417969 45.335938 70.78125 46.40625 68.035156 46.40625 C 67.9375 46.40625 67.84375 46.40625 67.742188 46.398438 L 67.734375 46.398438 C 67.640625 46.398438 67.542969 46.40625 67.4375 46.40625 C 64.691406 46.40625 62.058594 45.335938 60.089844 43.40625 C 59.410156 42.734375 58.824219 41.976562 58.347656 41.140625 Z M 50.808594 50.90625 L 50.808594 50.914062 L 50.816406 50.914062 C 53.800781 50.921875 56.453125 50.914062 59.742188 54.507812 C 62.394531 54.234375 65.066406 54.101562 67.734375 54.109375 C 70.410156 54.101562 73.074219 54.234375 75.734375 54.507812 C 79.023438 50.914062 81.671875 50.921875 84.660156 50.914062 L 84.664062 50.914062 C 86.078125 50.914062 91.714844 50.914062 95.652344 61.972656 L 99.878906 77.164062 C 103.003906 88.460938 98.871094 88.734375 93.71875 88.75 C 86.070312 88.460938 81.847656 82.898438 81.847656 77.335938 C 77.613281 78.03125 72.675781 78.375 67.734375 78.375 C 62.796875 78.375 57.867188 78.03125 53.632812 77.335938 C 53.632812 82.898438 49.398438 88.460938 41.757812 88.75 C 36.597656 88.734375 32.472656 88.460938 35.597656 77.164062 L 39.824219 61.972656 C 43.75 50.914062 49.398438 50.914062 50.808594 50.914062 Z M 67.734375 59.613281 C 67.726562 59.613281 59.6875 67.015625 58.246094 69.648438 L 63.507812 69.4375 L 63.507812 74.039062 C 63.507812 74.257812 65.621094 74.164062 67.734375 74.070312 C 69.855469 74.164062 71.96875 74.257812 71.96875 74.039062 L 71.96875 69.4375 L 77.230469 69.648438 C 75.789062 67.023438 67.742188 59.613281 67.742188 59.613281 Z M 143.433594 94.984375 L 143.433594 58.164062 L 155.824219 58.164062 L 155.824219 94.984375 Z M 149.707031 55.160156 C 147.617188 55.160156 146 54.640625 144.851562 53.59375 C 143.761719 52.546875 143.207031 51.152344 143.207031 49.40625 C 143.207031 47.757812 143.761719 46.359375 144.851562 45.210938 C 146 44.0625 147.609375 43.492188 149.707031 43.492188 C 151.800781 43.492188 153.386719 44.0625 154.484375 45.210938 C 155.632812 46.359375 156.199219 47.757812 156.199219 49.40625 C 156.199219 51.152344 155.632812 52.546875 154.484375 53.59375 C 153.386719 54.640625 151.800781 55.160156 149.707031 55.160156 Z M 174.328125 95.734375 C 170.738281 95.734375 168.027344 94.78125 166.1875 92.890625 C 164.394531 90.945312 163.496094 88.246094 163.496094 84.804688 L 163.496094 67.367188 L 158.574219 67.367188 L 158.574219 58.15625 L 163.496094 58.15625 L 163.496094 49.179688 L 175.894531 49.179688 L 175.894531 58.164062 L 183.960938 58.164062 L 183.960938 67.367188 L 175.894531 67.367188 L 175.894531 83.007812 C 175.894531 84.15625 176.121094 84.980469 176.566406 85.476562 C 177.0625 85.929688 177.816406 86.148438 178.8125 86.148438 C 180.152344 86.148438 181.625 85.558594 183.214844 84.351562 L 186.054688 92.515625 C 184.613281 93.507812 182.964844 94.3125 181.125 94.910156 C 179.277344 95.460938 177.015625 95.734375 174.328125 95.734375 Z M 204.828125 95.734375 C 199.144531 95.734375 194.664062 94.109375 191.378906 90.867188 C 188.144531 87.625 186.527344 82.902344 186.527344 76.71875 C 186.527344 72.234375 187.449219 68.460938 189.285156 65.417969 C 191.183594 62.273438 193.542969 60.160156 196.382812 59.054688 C 199.378906 57.914062 202.136719 57.335938 204.675781 57.335938 C 207.863281 57.335938 210.523438 57.984375 212.667969 59.285156 C 214.8125 60.53125 216.378906 61.90625 217.378906 63.398438 C 218.417969 64.898438 219.171875 66.070312 219.613281 66.914062 L 211.023438 72.453125 C 210.226562 70.804688 209.363281 69.511719 208.410156 68.5625 C 207.46875 67.617188 206.320312 67.140625 204.980469 67.140625 C 203.085938 67.140625 201.589844 67.890625 200.5 69.382812 C 199.40625 70.878906 198.855469 73.15625 198.855469 76.195312 C 198.855469 79.492188 199.511719 81.90625 200.804688 83.453125 C 202.089844 85.007812 203.9375 85.78125 206.320312 85.78125 C 208.214844 85.78125 209.78125 85.429688 211.03125 84.726562 C 212.324219 84.03125 213.539062 83.132812 214.6875 82.03125 L 218.644531 91.3125 C 217.453125 92.3125 215.6875 93.304688 213.34375 94.304688 C 211.007812 95.253906 208.167969 95.726562 204.832031 95.726562 Z M 222.855469 94.984375 L 222.855469 44.984375 L 235.332031 44.984375 L 235.332031 60.175781 C 236.375 59.429688 237.644531 58.78125 239.140625 58.234375 C 240.640625 57.632812 242.425781 57.335938 244.523438 57.335938 C 248.902344 57.335938 252.164062 58.585938 254.300781 61.078125 C 256.496094 63.578125 257.585938 67.09375 257.585938 71.636719 L 257.585938 94.984375 L 245.113281 94.984375 L 245.113281 73.132812 C 245.113281 71.039062 244.71875 69.515625 243.921875 68.5625 C 243.125 67.570312 242.082031 67.070312 240.785156 67.070312 C 239.6875 67.070312 238.664062 67.316406 237.726562 67.820312 C 236.777344 68.320312 235.984375 68.84375 235.332031 69.394531 L 235.332031 94.992188 L 222.855469 94.992188 Z M 267.160156 95.734375 C 265.171875 95.734375 263.605469 95.15625 262.460938 94.007812 C 261.3125 92.867188 260.746094 91.390625 260.746094 89.59375 C 260.746094 87.796875 261.3125 86.304688 262.460938 85.101562 C 263.605469 83.90625 265.171875 83.316406 267.160156 83.316406 C 269.054688 83.316406 270.578125 83.90625 271.722656 85.101562 C 272.867188 86.304688 273.4375 87.796875 273.4375 89.59375 C 273.4375 91.390625 272.867188 92.859375 271.722656 94.007812 C 270.628906 95.15625 269.109375 95.734375 267.167969 95.734375 Z M 276.335938 94.984375 L 276.335938 58.164062 L 288.730469 58.164062 L 288.730469 94.984375 Z M 282.605469 55.171875 C 280.515625 55.171875 278.890625 54.648438 277.753906 53.601562 C 276.65625 52.554688 276.113281 51.152344 276.113281 49.414062 C 276.113281 47.765625 276.65625 46.371094 277.75 45.21875 C 278.890625 44.070312 280.515625 43.5 282.605469 43.5 C 284.703125 43.5 286.292969 44.070312 287.382812 45.21875 C 288.527344 46.371094 289.101562 47.765625 289.101562 49.414062 C 289.101562 51.152344 288.527344 52.554688 287.382812 53.601562 C 286.292969 54.648438 284.703125 55.171875 282.605469 55.171875 Z M 310.621094 95.734375 C 307.738281 95.734375 305.171875 95.253906 302.929688 94.3125 C 300.691406 93.3125 298.777344 91.960938 297.183594 90.265625 C 295.640625 88.523438 294.449219 86.476562 293.597656 84.132812 C 292.800781 81.734375 292.40625 79.140625 292.40625 76.34375 C 292.40625 72.199219 293.300781 68.585938 295.085938 65.492188 C 296.933594 62.453125 299.226562 60.328125 301.964844 59.132812 C 304.753906 57.9375 307.636719 57.335938 310.621094 57.335938 C 314.90625 57.335938 318.441406 58.335938 321.226562 60.328125 C 324.0625 62.328125 326.058594 64.820312 327.207031 67.8125 C 328.351562 70.804688 328.917969 73.65625 328.917969 76.34375 C 328.917969 79.140625 328.5 81.734375 327.652344 84.132812 C 326.855469 86.476562 325.652344 88.523438 324.0625 90.265625 C 322.519531 91.960938 320.601562 93.3125 318.308594 94.3125 C 316.070312 95.253906 313.507812 95.734375 310.617188 95.734375 Z M 310.621094 86.148438 C 312.710938 86.148438 314.234375 85.28125 315.183594 83.53125 C 316.128906 81.734375 316.59375 79.339844 316.59375 76.34375 C 316.59375 73.5 316.105469 71.234375 315.105469 69.539062 C 314.109375 67.84375 312.621094 66.992188 310.621094 66.992188 C 308.683594 66.992188 307.21875 67.84375 306.21875 69.539062 C 305.230469 71.234375 304.730469 73.5 304.730469 76.34375 C 304.730469 79.339844 305.199219 81.734375 306.148438 83.53125 C 307.144531 85.28125 308.644531 86.148438 310.632812 86.148438 Z M 174.890625 27.121094 C 173.921875 27.171875 173.113281 27.257812 172.457031 27.382812 C 171.792969 27.5 171.265625 27.65625 170.867188 27.84375 C 170.476562 28.039062 170.1875 28.257812 170.015625 28.515625 C 169.84375 28.757812 169.757812 29.046875 169.757812 29.34375 C 169.757812 29.929688 169.929688 30.351562 170.273438 30.601562 C 170.621094 30.859375 171.082031 30.984375 171.640625 30.984375 C 172.332031 30.984375 172.917969 30.859375 173.414062 30.617188 C 173.921875 30.355469 174.414062 29.984375 174.890625 29.476562 Z M 167.226562 21.085938 C 168.824219 19.625 170.75 18.890625 172.996094 18.890625 C 173.808594 18.890625 174.539062 19.023438 175.175781 19.296875 C 175.816406 19.5625 176.363281 19.929688 176.796875 20.414062 C 177.242188 20.882812 177.578125 21.445312 177.804688 22.109375 C 178.039062 22.769531 178.15625 23.492188 178.15625 24.28125 L 178.15625 33.070312 L 176.632812 33.070312 C 176.320312 33.070312 176.082031 33.023438 175.910156 32.9375 C 175.738281 32.835938 175.597656 32.640625 175.503906 32.351562 L 175.203125 31.351562 C 174.875 31.648438 174.53125 31.929688 174.167969 32.1875 C 173.835938 32.421875 173.496094 32.625 173.132812 32.789062 C 172.769531 32.953125 172.378906 33.070312 171.964844 33.15625 C 171.558594 33.242188 171.109375 33.289062 170.605469 33.289062 C 170.027344 33.289062 169.488281 33.210938 168.988281 33.054688 C 168.488281 32.894531 168.058594 32.65625 167.703125 32.335938 C 167.335938 32.015625 167.042969 31.609375 166.859375 31.15625 C 166.664062 30.683594 166.5625 30.140625 166.5625 29.515625 C 166.5625 29.164062 166.625 28.8125 166.742188 28.46875 C 166.867188 28.101562 167.058594 27.765625 167.3125 27.46875 C 167.578125 27.148438 167.925781 26.851562 168.347656 26.570312 C 168.777344 26.289062 169.289062 26.046875 169.910156 25.835938 C 170.53125 25.632812 171.257812 25.457031 172.074219 25.335938 C 172.894531 25.203125 173.835938 25.117188 174.890625 25.09375 L 174.890625 24.28125 C 174.890625 23.34375 174.695312 22.652344 174.296875 22.21875 C 173.898438 21.761719 173.320312 21.539062 172.574219 21.539062 C 172.035156 21.539062 171.585938 21.601562 171.226562 21.726562 C 170.867188 21.851562 170.5625 22 170.289062 22.164062 C 170.015625 22.3125 169.765625 22.453125 169.539062 22.578125 C 169.324219 22.710938 169.078125 22.769531 168.808594 22.769531 C 168.574219 22.769531 168.378906 22.710938 168.214844 22.59375 C 168.058594 22.476562 167.925781 22.324219 167.824219 22.164062 Z M 193.511719 19.148438 L 188 33.070312 L 184.96875 33.070312 L 179.457031 19.148438 L 182.214844 19.148438 C 182.476562 19.148438 182.675781 19.207031 182.839844 19.328125 C 183.011719 19.445312 183.128906 19.59375 183.183594 19.773438 L 185.863281 27.210938 C 186.140625 28.039062 186.367188 28.875 186.527344 29.734375 C 186.613281 29.316406 186.714844 28.898438 186.824219 28.484375 C 186.933594 28.070312 187.0625 27.640625 187.214844 27.210938 L 189.949219 19.773438 C 190.015625 19.59375 190.132812 19.445312 190.292969 19.328125 C 190.457031 19.207031 190.640625 19.148438 190.871094 19.148438 Z M 202.289062 27.121094 C 201.324219 27.171875 200.511719 27.257812 199.851562 27.382812 C 199.195312 27.5 198.667969 27.65625 198.269531 27.84375 C 197.867188 28.039062 197.589844 28.257812 197.417969 28.515625 C 197.246094 28.757812 197.160156 29.046875 197.160156 29.34375 C 197.160156 29.929688 197.332031 30.351562 197.675781 30.601562 C 198.027344 30.859375 198.480469 30.984375 199.042969 30.984375 C 199.726562 30.984375 200.316406 30.859375 200.820312 30.617188 C 201.324219 30.355469 201.816406 29.984375 202.289062 29.476562 Z M 194.628906 21.085938 C 196.226562 19.625 198.152344 18.890625 200.398438 18.890625 C 201.207031 18.890625 201.933594 19.023438 202.582031 19.296875 C 203.21875 19.5625 203.757812 19.929688 204.199219 20.414062 C 204.644531 20.882812 204.980469 21.445312 205.207031 22.109375 C 205.441406 22.769531 205.554688 23.492188 205.554688 24.28125 L 205.554688 33.070312 L 204.039062 33.070312 C 203.726562 33.070312 203.476562 33.023438 203.304688 32.9375 C 203.132812 32.835938 203 32.640625 202.898438 32.351562 L 202.605469 31.351562 C 202.277344 31.648438 201.933594 31.929688 201.574219 32.1875 C 201.246094 32.421875 200.894531 32.625 200.527344 32.789062 C 200.171875 32.953125 199.78125 33.070312 199.367188 33.15625 C 198.960938 33.242188 198.507812 33.289062 198.011719 33.289062 C 197.425781 33.289062 196.882812 33.210938 196.390625 33.054688 C 195.890625 32.894531 195.460938 32.65625 195.105469 32.335938 C 194.734375 32.015625 194.449219 31.609375 194.261719 31.15625 C 194.066406 30.683594 193.964844 30.140625 193.964844 29.515625 C 193.964844 29.164062 194.019531 28.8125 194.140625 28.46875 C 194.269531 28.101562 194.457031 27.765625 194.707031 27.46875 C 194.976562 27.148438 195.328125 26.851562 195.75 26.570312 C 196.175781 26.289062 196.695312 26.046875 197.308594 25.835938 C 197.933594 25.632812 198.648438 25.457031 199.476562 25.335938 C 200.296875 25.203125 201.238281 25.117188 202.289062 25.09375 L 202.289062 24.28125 C 202.289062 23.34375 202.09375 22.652344 201.699219 22.21875 C 201.300781 21.761719 200.726562 21.539062 199.972656 21.539062 C 199.4375 21.539062 198.984375 21.601562 198.621094 21.726562 C 198.269531 21.851562 197.953125 22 197.691406 22.164062 C 197.417969 22.3125 197.171875 22.453125 196.945312 22.578125 C 196.726562 22.710938 196.484375 22.769531 196.210938 22.769531 C 195.976562 22.769531 195.78125 22.710938 195.617188 22.59375 C 195.460938 22.476562 195.328125 22.324219 195.222656 22.164062 Z M 212.171875 19.148438 L 212.171875 33.070312 L 208.816406 33.070312 L 208.816406 19.148438 Z M 212.632812 15.09375 C 212.632812 15.382812 212.574219 15.644531 212.457031 15.90625 C 212.339844 16.15625 212.183594 16.382812 211.980469 16.570312 C 211.796875 16.757812 211.566406 16.914062 211.304688 17.03125 C 211.039062 17.140625 210.746094 17.195312 210.46875 17.195312 C 210.183594 17.195312 209.898438 17.140625 209.644531 17.03125 C 209.394531 16.921875 209.167969 16.765625 208.980469 16.570312 C 208.785156 16.375 208.625 16.15625 208.511719 15.90625 C 208.402344 15.644531 208.347656 15.367188 208.355469 15.09375 C 208.355469 14.789062 208.410156 14.515625 208.511719 14.25 C 208.625 13.984375 208.785156 13.757812 208.980469 13.570312 C 209.167969 13.382812 209.386719 13.234375 209.644531 13.125 C 209.898438 13.007812 210.183594 12.945312 210.46875 12.945312 C 210.757812 12.945312 211.039062 13.007812 211.304688 13.125 C 211.566406 13.234375 211.796875 13.382812 211.980469 13.570312 C 212.183594 13.757812 212.339844 13.984375 212.457031 14.25 C 212.574219 14.515625 212.632812 14.804688 212.632812 15.09375 Z M 218.964844 12.90625 L 218.964844 33.070312 L 215.621094 33.070312 L 215.621094 12.90625 Z M 229.636719 27.121094 C 228.671875 27.171875 227.859375 27.257812 227.199219 27.382812 C 226.542969 27.5 226.015625 27.65625 225.617188 27.84375 C 225.21875 28.039062 224.9375 28.257812 224.765625 28.515625 C 224.59375 28.757812 224.507812 29.046875 224.507812 29.34375 C 224.507812 29.929688 224.679688 30.351562 225.023438 30.601562 C 225.375 30.859375 225.828125 30.984375 226.390625 30.984375 C 227.074219 30.984375 227.664062 30.859375 228.167969 30.617188 C 228.671875 30.355469 229.164062 29.984375 229.636719 29.476562 Z M 221.976562 21.085938 C 223.574219 19.625 225.492188 18.890625 227.746094 18.890625 C 228.554688 18.890625 229.28125 19.023438 229.921875 19.296875 C 230.566406 19.5625 231.105469 19.929688 231.550781 20.414062 C 231.992188 20.882812 232.328125 21.445312 232.546875 22.109375 C 232.789062 22.769531 232.90625 23.492188 232.90625 24.28125 L 232.90625 33.070312 L 231.386719 33.070312 C 231.078125 33.070312 230.824219 33.023438 230.652344 32.9375 C 230.484375 32.835938 230.347656 32.640625 230.246094 32.351562 L 229.953125 31.351562 C 229.625 31.648438 229.28125 31.929688 228.921875 32.1875 C 228.597656 32.421875 228.242188 32.625 227.875 32.789062 C 227.519531 32.953125 227.128906 33.070312 226.714844 33.15625 C 226.308594 33.242188 225.855469 33.289062 225.359375 33.289062 C 224.773438 33.289062 224.230469 33.210938 223.738281 33.054688 C 223.238281 32.894531 222.8125 32.65625 222.453125 32.335938 C 222.082031 32.015625 221.796875 31.609375 221.609375 31.15625 C 221.40625 30.683594 221.3125 30.140625 221.3125 29.515625 C 221.3125 29.164062 221.371094 28.8125 221.484375 28.46875 C 221.609375 28.101562 221.804688 27.765625 222.054688 27.46875 C 222.324219 27.148438 222.675781 26.851562 223.097656 26.570312 C 223.523438 26.289062 224.042969 26.046875 224.65625 25.835938 C 225.28125 25.632812 226 25.457031 226.824219 25.335938 C 227.644531 25.203125 228.585938 25.117188 229.636719 25.09375 L 229.636719 24.28125 C 229.636719 23.34375 229.445312 22.652344 229.046875 22.21875 C 228.648438 21.761719 228.070312 21.539062 227.324219 21.539062 C 226.777344 21.539062 226.332031 21.601562 225.96875 21.726562 C 225.617188 21.851562 225.304688 22 225.035156 22.164062 C 224.765625 22.3125 224.519531 22.453125 224.292969 22.578125 C 224.074219 22.710938 223.832031 22.769531 223.558594 22.769531 C 223.324219 22.769531 223.121094 22.710938 222.964844 22.59375 C 222.8125 22.476562 222.675781 22.324219 222.570312 22.164062 Z M 239.402344 29.460938 C 239.773438 29.921875 240.1875 30.25 240.632812 30.4375 C 241.085938 30.625 241.566406 30.726562 242.050781 30.726562 C 242.5625 30.726562 243.023438 30.632812 243.429688 30.453125 C 243.855469 30.265625 244.199219 29.976562 244.492188 29.585938 C 244.777344 29.1875 244.996094 28.6875 245.152344 28.078125 C 245.3125 27.460938 245.378906 26.726562 245.378906 25.886719 C 245.378906 24.351562 245.128906 23.25 244.625 22.570312 C 244.117188 21.878906 243.394531 21.539062 242.445312 21.539062 C 241.800781 21.539062 241.246094 21.6875 240.761719 21.984375 C 240.292969 22.273438 239.832031 22.6875 239.402344 23.214844 Z M 239.402344 20.859375 C 239.964844 20.273438 240.578125 19.804688 241.257812 19.460938 C 241.941406 19.105469 242.722656 18.929688 243.59375 18.929688 C 244.398438 18.929688 245.121094 19.089844 245.761719 19.40625 C 246.417969 19.726562 246.976562 20.195312 247.417969 20.773438 C 247.871094 21.367188 248.222656 22.078125 248.472656 22.921875 C 248.71875 23.765625 248.832031 24.710938 248.832031 25.757812 C 248.832031 26.890625 248.691406 27.914062 248.421875 28.835938 C 248.140625 29.761719 247.734375 30.554688 247.210938 31.214844 C 246.714844 31.851562 246.074219 32.375 245.339844 32.734375 C 244.609375 33.09375 243.796875 33.273438 242.90625 33.273438 C 242.472656 33.273438 242.082031 33.234375 241.722656 33.140625 C 241.0625 32.996094 240.441406 32.679688 239.921875 32.234375 C 239.679688 32.003906 239.445312 31.757812 239.21875 31.484375 L 239.074219 32.421875 C 239.015625 32.65625 238.925781 32.820312 238.792969 32.921875 C 238.660156 33.023438 238.488281 33.070312 238.261719 33.070312 L 236.054688 33.070312 L 236.054688 12.90625 L 239.402344 12.90625 Z M 254.804688 12.90625 L 254.804688 33.070312 L 251.460938 33.070312 L 251.460938 12.90625 Z M 267.09375 24.507812 C 267.09375 24.078125 267.03125 23.660156 266.894531 23.289062 C 266.785156 22.914062 266.605469 22.570312 266.355469 22.273438 C 266.113281 21.976562 265.804688 21.761719 265.421875 21.59375 C 265.046875 21.421875 264.621094 21.332031 264.121094 21.332031 C 263.152344 21.332031 262.390625 21.609375 261.839844 22.164062 C 261.28125 22.710938 260.933594 23.492188 260.773438 24.507812 Z M 260.707031 26.53125 C 260.761719 27.238281 260.890625 27.867188 261.089844 28.390625 C 261.292969 28.902344 261.546875 29.332031 261.875 29.679688 C 262.195312 30.015625 262.59375 30.273438 263.027344 30.4375 C 263.472656 30.601562 263.976562 30.679688 264.519531 30.679688 C 265.058594 30.679688 265.523438 30.617188 265.90625 30.492188 C 266.265625 30.382812 266.605469 30.238281 266.945312 30.070312 C 267.199219 29.9375 267.457031 29.792969 267.714844 29.65625 C 267.933594 29.523438 268.148438 29.460938 268.359375 29.460938 C 268.640625 29.460938 268.847656 29.5625 268.984375 29.777344 L 269.945312 30.992188 C 269.585938 31.421875 269.164062 31.789062 268.695312 32.09375 C 268.246094 32.382812 267.761719 32.617188 267.246094 32.796875 C 266.757812 32.96875 266.242188 33.09375 265.71875 33.164062 C 265.21875 33.234375 264.722656 33.273438 264.214844 33.273438 C 263.253906 33.273438 262.347656 33.117188 261.527344 32.796875 C 260.707031 32.484375 259.96875 32.003906 259.359375 31.375 C 258.742188 30.742188 258.257812 29.960938 257.90625 29.039062 C 257.554688 28.113281 257.375 27.03125 257.375 25.8125 C 257.375 24.863281 257.535156 23.972656 257.835938 23.140625 C 258.148438 22.296875 258.585938 21.570312 259.15625 20.953125 C 259.734375 20.328125 260.433594 19.835938 261.25 19.476562 C 262.085938 19.105469 263.011719 18.929688 264.058594 18.929688 C 264.929688 18.929688 265.734375 19.074219 266.472656 19.351562 C 267.199219 19.617188 267.847656 20.039062 268.386719 20.585938 C 268.921875 21.117188 269.335938 21.777344 269.632812 22.570312 C 269.945312 23.34375 270.09375 24.234375 270.09375 25.242188 C 270.09375 25.753906 270.035156 26.09375 269.929688 26.273438 C 269.828125 26.445312 269.617188 26.53125 269.3125 26.53125 Z M 285.339844 18.929688 C 286.371094 18.929688 287.296875 19.101562 288.136719 19.429688 C 288.988281 19.765625 289.714844 20.242188 290.308594 20.859375 C 290.914062 21.476562 291.375 22.222656 291.699219 23.109375 C 292.027344 24 292.191406 24.996094 292.191406 26.085938 C 292.191406 27.1875 292.027344 28.179688 291.699219 29.070312 C 291.375 29.953125 290.914062 30.710938 290.308594 31.335938 C 289.714844 31.960938 288.988281 32.4375 288.136719 32.773438 C 287.296875 33.109375 286.371094 33.273438 285.339844 33.273438 C 284.296875 33.273438 283.351562 33.109375 282.511719 32.773438 C 281.664062 32.4375 280.925781 31.960938 280.332031 31.335938 C 279.726562 30.710938 279.265625 29.953125 278.933594 29.070312 C 278.605469 28.179688 278.445312 27.1875 278.445312 26.085938 C 278.445312 24.996094 278.605469 24 278.933594 23.109375 C 279.265625 22.222656 279.726562 21.476562 280.332031 20.859375 C 280.925781 20.242188 281.664062 19.765625 282.511719 19.429688 C 283.351562 19.101562 284.296875 18.929688 285.339844 18.929688 Z M 285.339844 30.695312 C 286.492188 30.695312 287.34375 30.304688 287.898438 29.53125 C 288.460938 28.75 288.742188 27.609375 288.742188 26.109375 C 288.742188 24.609375 288.460938 23.460938 287.898438 22.679688 C 287.34375 21.890625 286.492188 21.5 285.339844 21.5 C 284.164062 21.5 283.289062 21.890625 282.722656 22.6875 C 282.167969 23.476562 281.890625 24.617188 281.890625 26.109375 C 281.890625 27.601562 282.167969 28.742188 282.722656 29.53125 C 283.289062 30.304688 284.164062 30.695312 285.339844 30.695312 Z M 297.871094 20.859375 C 298.140625 20.578125 298.4375 20.320312 298.75 20.085938 C 299.054688 19.84375 299.386719 19.640625 299.742188 19.476562 C 300.101562 19.296875 300.46875 19.171875 300.863281 19.078125 C 301.285156 18.976562 301.730469 18.929688 302.164062 18.929688 C 302.917969 18.929688 303.589844 19.0625 304.175781 19.328125 C 304.769531 19.578125 305.25 19.9375 305.640625 20.414062 C 306.035156 20.871094 306.335938 21.433594 306.539062 22.078125 C 306.742188 22.71875 306.851562 23.429688 306.851562 24.210938 L 306.851562 33.070312 L 303.507812 33.070312 L 303.507812 24.210938 C 303.507812 23.359375 303.308594 22.703125 302.917969 22.242188 C 302.53125 21.773438 301.9375 21.539062 301.140625 21.539062 C 300.582031 21.53125 300.019531 21.671875 299.523438 21.929688 C 299.011719 22.195312 298.539062 22.546875 298.085938 23 L 298.085938 33.070312 L 294.742188 33.070312 L 294.742188 19.148438 L 296.789062 19.148438 C 297.222656 19.148438 297.503906 19.351562 297.644531 19.757812 Z M 297.871094 20.859375 "/>
</g>
</svg>
